# xmcd
#
# Track frame offsets:
# 150
# 16672
# 32772
# 49432
# 64413
# 81298
# 98021
# 114020
# 127622
# 143270
# 158001
# 174588
#
# Disc length: 2578 seconds
#
#
# Revision: 0
# Processed by: cddbd v1.5.2PL0 Copyright (c) Steve Scherf et al.
# Submitted via: FreeRIP 2.96 
#
DISCID=870a100c
DTITLE=Jerzee Monet - Love and War
DYEAR=2002
DGENRE=R&B
TTITLE0=Most High
TTITLE1=Respect
TTITLE2=Work It Out
TTITLE3=Tonight Is The Night
TTITLE4=Yeah f- EvE
TTITLE5=Stop My Flow
TTITLE6=Twisted f- Ja Rule
TTITLE7=Better Than That
TTITLE8=Missing You
TTITLE9=Love and War
TTITLE10=One Of Those Days
TTITLE11=Most High (rmx) f- DMX
EXTD=
EXTT0=
EXTT1=
EXTT2=
EXTT3=
EXTT4=
EXTT5=
EXTT6=
EXTT7=
EXTT8=
EXTT9=
EXTT10=
EXTT11=
PLAYORDER=
